<svg xmlns="http://www.w3.org/2000/svg" width="1280" height="760" viewBox="0 0 1280 760">
    <defs>
      <linearGradient id="bg" x1="0" y1="0" x2="1" y2="1">
        <stop offset="0" stop-color="#0f172a"/>
        <stop offset="1" stop-color="#1e293b"/>
      </linearGradient>
      <filter id="shadow" x="-20%" y="-20%" width="140%" height="140%">
        <feDropShadow dx="0" dy="18" stdDeviation="16" flood-color="#000" flood-opacity=".35"/>
      </filter>
    </defs>
    <rect width="1280" height="760" fill="url(#bg)"/>
    <rect x="30" y="28" width="1220" height="704" rx="30" fill="#020617" stroke="#334155" filter="url(#shadow)"/>
    <rect x="30" y="28" width="1220" height="74" rx="30" fill="#111827"/>
    <circle cx="72" cy="65" r="10" fill="#ef4444"/><circle cx="105" cy="65" r="10" fill="#f59e0b"/><circle cx="138" cy="65" r="10" fill="#22c55e"/>
    <text x="190" y="74" fill="#f8fafc" font-family="Segoe UI, Arial" font-size="30" font-weight="700">Prompt 1.0</text>
    <text x="60" y="150" fill="#cbd5e1" font-family="Segoe UI, Arial" font-size="25">The main workbench combines prompt generation, workflow controls, and reusable instruction libraries.</text>
    <g font-family="Segoe UI, Arial">
        <rect x="60" y="205" width="371" height="430" rx="22" fill="#111827" stroke="#334155"/>
        <text x="86" y="257" fill="#38bdf8" font-size="28" font-weight="700">Prompts</text>
        <text x="86" y="305" fill="#e5e7eb" font-size="21">Pick a starter prompt and generate the fin</text>
        <rect x="86" y="341" width="319" height="18" rx="9" fill="#1f2937"/>
        <rect x="86" y="381" width="293" height="18" rx="9" fill="#1f2937"/>
        <rect x="86" y="421" width="266" height="18" rx="9" fill="#1f2937"/>
        <rect x="86" y="487" width="319" height="98" rx="14" fill="#0b1220" stroke="#273449"/>
        
        <rect x="455" y="205" width="371" height="430" rx="22" fill="#111827" stroke="#334155"/>
        <text x="481" y="257" fill="#38bdf8" font-size="28" font-weight="700">Workflow</text>
        <text x="481" y="305" fill="#e5e7eb" font-size="21">Checkboxes, radios, fields, and live previ</text>
        <rect x="481" y="341" width="319" height="18" rx="9" fill="#1f2937"/>
        <rect x="481" y="381" width="293" height="18" rx="9" fill="#1f2937"/>
        <rect x="481" y="421" width="266" height="18" rx="9" fill="#1f2937"/>
        <rect x="481" y="487" width="319" height="98" rx="14" fill="#0b1220" stroke="#273449"/>
        
        <rect x="849" y="205" width="371" height="430" rx="22" fill="#111827" stroke="#334155"/>
        <text x="875" y="257" fill="#38bdf8" font-size="28" font-weight="700">Doctype</text>
        <text x="875" y="305" fill="#e5e7eb" font-size="21">Response preferences and handbook memory.</text>
        <rect x="875" y="341" width="319" height="18" rx="9" fill="#1f2937"/>
        <rect x="875" y="381" width="293" height="18" rx="9" fill="#1f2937"/>
        <rect x="875" y="421" width="266" height="18" rx="9" fill="#1f2937"/>
        <rect x="875" y="487" width="319" height="98" rx="14" fill="#0b1220" stroke="#273449"/>
        </g>
    </svg>